# xmcd CD database file
#
# Track frame offsets:
#	150
#	17812
#	36910
#	56530
#	75102
#	95002
#	116157
#	138202
#	152112
#	169385
#	188345
#	209667
#
# Disc length: 3061 seconds
#
# Revision: 6
# Processed by: cddbd v1.5.2PL0 Copyright (c) Steve Scherf et al.
# Submitted via: CDex 1.70beta2
#
DISCID=9b0bf30c
DTITLE=彭羚 - 未完的小說
DYEAR=1994
DGENRE=Pop
TTITLE0=讓我跟你走
TTITLE1=未完的小說
TTITLE2=不許眼兒再下雨
TTITLE3=情難自制
TTITLE4=奔向你
TTITLE5=愛過痛過亦願等
TTITLE6=彷彿是初戀
TTITLE7=一世愛著你
TTITLE8=有緣遇上
TTITLE9=LET'S STAY AWHILE
TTITLE10=三人世界
TTITLE11=讓我跟你走 (彭羚、巫啟賢合唱)
EXTD=YEAR: 1994
EXTT0=
EXTT1=
EXTT2=
EXTT3=
EXTT4=
EXTT5=
EXTT6=
EXTT7=
EXTT8=
EXTT9=
EXTT10=
EXTT11=
PLAYORDER=
